<svg xmlns="http://www.w3.org/2000/svg"  viewBox="0 0 96 96" width="96px" height="96px" baseProfile="basic"><path fill="#FFFFFF" d="M40.394,76.836c-4.907,0-8.948-4.28-16.94-12.742c-3.511-3.717-7.88-8.344-13.455-13.835	c-1.501-1.448-1.808-3.023-1.797-4.085c0.03-2.971,2.475-5.238,4.261-6.894c0.442-0.41,0.899-0.833,1.126-1.099	c0.05-0.058,0.102-0.113,0.155-0.167c1.133-1.134,2.639-1.758,4.242-1.758c0.007,0,0.013,0,0.02,0	c1.61,0.005,3.119,0.639,4.25,1.785l15.88,16.095c0.803,0.813,1.045,1.97,0.732,2.991L74.751,21.02	c1.418-1.494,2.98-1.813,4.064-1.804c2.986,0.018,5.27,2.48,6.937,4.278c0.407,0.438,0.828,0.893,1.092,1.12	c0.056,0.048,0.109,0.098,0.162,0.15c2.333,2.333,2.339,6.134,0.012,8.474c-0.032,0.033-0.065,0.064-0.1,0.096	C72.308,46.727,63,57.127,56.842,64.01c-7.602,8.495-11.418,12.759-16.334,12.825C40.47,76.835,40.432,76.836,40.394,76.836z M14.302,46.075c5.618,5.539,9.994,10.172,13.514,13.899c6.172,6.536,10.258,10.861,12.586,10.861c0.008,0,0.017,0,0.025,0	c2.283-0.031,6.126-4.326,11.944-10.827c6.223-6.954,15.619-17.454,30.386-31.001c-0.46-0.417-0.92-0.913-1.403-1.434	c-0.585-0.631-1.728-1.863-2.415-2.256l-36.81,37.041c-1.168,1.175-3.067,1.181-4.243,0.013c-0.928-0.922-1.127-2.301-0.594-3.419	c-1.121,0.533-2.504,0.333-3.427-0.602L17.99,42.26c-0.421,0.466-0.922,0.931-1.448,1.419C15.915,44.26,14.692,45.395,14.302,46.075	z M79.136,25.124L79.136,25.124L79.136,25.124z" opacity=".3"/><path fill="#44d62c" d="M40.397,75.836c-4.479,0-8.42-4.173-16.216-12.429	c-3.517-3.723-7.893-8.357-13.48-13.861c-1.252-1.208-1.508-2.497-1.499-3.363c0.025-2.54,2.196-4.553,3.94-6.17	c0.484-0.449,0.941-0.872,1.206-1.181c0.033-0.039,0.067-0.076,0.104-0.111c0.945-0.945,2.199-1.465,3.535-1.465	c0.006,0,0.011,0,0.017,0c1.341,0.004,2.6,0.532,3.542,1.487l15.879,16.095c0.776,0.787,0.767,2.053-0.019,2.829	c-0.787,0.774-2.053,0.767-2.829-0.019L18.697,41.553c-0.255-0.259-0.55-0.264-0.71-0.297c-0.149,0-0.425,0.035-0.67,0.258	c-0.404,0.458-0.915,0.932-1.455,1.432c-0.927,0.859-2.652,2.459-2.66,3.277c-0.001,0.146,0.158,0.33,0.292,0.459	c5.653,5.569,10.057,10.232,13.596,13.979c6.795,7.196,10.553,11.174,13.313,11.174c0.013,0,0.026,0,0.039,0	c2.722-0.037,6.257-3.987,12.675-11.16c6.225-6.956,15.631-17.468,30.423-31.029c0.312-0.316,0.32-0.922-0.035-1.313	c-0.452-0.4-0.922-0.906-1.417-1.441c-0.867-0.935-2.479-2.673-3.301-2.678c0,0-0.001,0-0.001,0c-0.144,0-0.327,0.161-0.456,0.296	L41.418,61.652c-0.778,0.784-2.044,0.788-2.828,0.009c-0.784-0.778-0.788-2.045-0.009-2.828L75.46,21.725	c1.176-1.239,2.455-1.509,3.324-1.509c0.008,0,0.017,0,0.024,0c2.553,0.015,4.581,2.201,6.21,3.958	c0.445,0.48,0.866,0.933,1.171,1.197c0.037,0.032,0.073,0.065,0.108,0.1c1.944,1.944,1.949,5.111,0.01,7.061	c-14.712,13.491-24.04,23.915-30.211,30.812c-7.407,8.277-11.125,12.432-15.603,12.492C40.462,75.835,40.429,75.836,40.397,75.836z" opacity=".3"/><path fill="#44d62c" d="M40.399,74.835c-4.051,0-7.891-4.066-15.492-12.115c-3.522-3.729-7.905-8.371-13.505-13.887	c-0.804-0.776-1.211-1.667-1.201-2.641c0.021-2.109,2.017-3.96,3.621-5.447c0.505-0.469,0.982-0.911,1.284-1.263	c0.807-0.812,1.812-1.228,2.879-1.228c0.005,0,0.009,0,0.014,0c1.073,0.003,2.079,0.426,2.833,1.189l15.879,16.095	c0.388,0.393,0.384,1.026-0.01,1.414c-0.393,0.388-1.026,0.384-1.414-0.01L19.409,40.851c-0.377-0.381-0.88-0.593-1.417-0.595	c-0.519,0.024-1.041,0.207-1.42,0.586c-0.324,0.382-0.842,0.862-1.39,1.371c-1.253,1.162-2.968,2.752-2.98,4	c-0.003,0.261,0.056,0.667,0.597,1.189c5.633,5.549,10.03,10.205,13.563,13.946c7.21,7.634,10.85,11.488,14.039,11.488	c0.018,0,0.035,0,0.053,0c3.161-0.042,6.8-4.11,13.407-11.493c6.211-6.941,15.598-17.431,30.354-30.958	c0.742-0.748,0.741-2.015-0.037-2.792c-0.378-0.323-0.854-0.835-1.358-1.378c-1.17-1.262-2.774-2.991-4.028-2.998	c-0.225,0.02-0.667,0.061-1.188,0.607L40.709,60.948c-0.39,0.392-1.022,0.394-1.415,0.004c-0.392-0.39-0.394-1.022-0.004-1.415	l36.879-37.108c0.765-0.806,1.616-1.213,2.634-1.214c2.12,0.013,3.984,2.023,5.482,3.638c0.465,0.501,0.904,0.974,1.252,1.274	c1.609,1.605,1.613,4.139,0.062,5.699c-14.715,13.493-24.063,23.938-30.248,30.85c-7.212,8.059-10.832,12.104-14.871,12.159	C40.454,74.835,40.426,74.835,40.399,74.835z"/></svg>